# xmcd CD database file
#
# Track frame offsets:
#	150
#	22709
#	40680
#	60341
#	80512
#	102103
#	123841
#	139775
#	160779
#	182362
#	203241
#	220701
#	241786
#	266941
#	288938
#	309010
#
# Disc length: 4467 seconds
#
# Revision: 0
# Processed by: cddbd v1.5.1PL0 Copyright (c) Steve Scherf et al.
# Submitted via: CDex 1.51
#
DISCID=c3117110
DTITLE=Various Artist - Salsa Viva
DYEAR=2000
DGENRE=Salsa
TTITLE0=Dejame sonar
TTITLE1=Como olvidarte
TTITLE2=Limon y menta
TTITLE3=Se que volvera
TTITLE4=Dime que te pasa
TTITLE5=Con Sandra en la cama
TTITLE6=Boogaloo de la doce
TTITLE7=Lo que me falto por hacerte
TTITLE8=Al mirarte a ti
TTITLE9=Disculpeme senora
TTITLE10=La Sandunguita
TTITLE11=Traicionera
TTITLE12=Malaguena salerosa
TTITLE13=Dale cara a la vidad
TTITLE14=Cuestion de epoca
TTITLE15=Melting Pot
EXTD=YEAR: 2000
EXTT0=
EXTT1=
EXTT2=
EXTT3=
EXTT4=
EXTT5=
EXTT6=
EXTT7=
EXTT8=
EXTT9=
EXTT10=
EXTT11=
EXTT12=
EXTT13=
EXTT14=
EXTT15=
PLAYORDER=
